In.Bruges.2008.720p.BRRip.x264.aac.mp4.anoXmous

Format                           : MPEG-4
Format profile                   : Base Media
Codec ID                         : isom
File size                        : 638 MiB
Duration                         : 1h 46mn
Overall bit rate mode            : Variable
Overall bit rate                 : 835 Kbps


Video
ID                               : 1
Format                           : AVC
Format/Info                      : Advanced Video Codec
Format profile                   : High@L4.1
Format settings, CABAC           : Yes
Format settings, ReFrames        : 4 frames
Codec ID                         : avc1
Codec ID/Info                    : Advanced Video Coding
Duration                         : 1h 46mn
Bit rate                         : 769 Kbps
Maximum bit rate                 : 8 549 Kbps
Width                            : 1 280 pixels
Height                           : 544 pixels
Display aspect ratio             : 2.35:1
Original display aspect ratio    : 2.35:1
Frame rate mode                  : Constant
Frame rate                       : 24.000 fps
Color space                      : YUV
Chroma subsampling               : 4:2:0
Bit depth                        : 8 bits
Scan type                        : Progressive
Bits/(Pixel*Frame)               : 0.046
Stream size                      : 587 MiB (92%)
Writing library                  : x264 core 119 r2106 07efeb4


Audio
ID                               : 2
Format                           : AAC
Format/Info                      : Advanced Audio Codec
Format profile                   : LC
Codec ID                         : 40
Duration                         : 1h 46mn
Bit rate mode                    : Variable
Bit rate                         : 63.9 Kbps
Maximum bit rate                 : 87.7 Kbps
Channel(s)                       : 2 channels
Channel positions                : Front: L R
Sampling rate                    : 48.0 KHz 
Compression mode                 : Lossy
Stream size                      : 48.8 MiB (8%)
Language                         : English

                                SUB:
          In.Bruges.2008.720p.BRRip.x264.aac.mp4.anoXmous_eng.srt
          In.Bruges.2008.720p.BRRip.x264.aac.mp4.anoXmous_swe.srt
	  
     +++++++This 1 should work very fine with PSP and XBOX :)+++++++++